<?xml version="1.0" encoding="utf-8"?>
<!-- Generator: Adobe Illustrator 16.0.0, SVG Export Plug-In . SVG Version: 6.00 Build 0)  -->
<!DOCTYPE svg PUBLIC "-//W3C//DTD SVG 1.1//EN" "http://www.w3.org/Graphics/SVG/1.1/DTD/svg11.dtd">
<svg version="1.1" id="Layer_1" xmlns="http://www.w3.org/2000/svg" xmlns:xlink="http://www.w3.org/1999/xlink" x="0px" y="0px"
	 width="361.646px" height="362.412px" viewBox="0 0 361.646 362.412" enable-background="new 0 0 361.646 362.412"
	 xml:space="preserve">
<g id="change2">
	<path fill="#0F2E50" d="M3.746,174.771l16.708-5.789L3.458,105.859l28.383,7.087c0,0,32.264,53.686,38.711,53.286
		c6.448-0.396,85.392-1.346,85.392-1.346s27.072-1.606,13.92-40.888C156.713,84.719,117.818,0.676,117.818,0.676
		s18.263-2.178,26.227,1.286c7.966,3.467,28.088,34.126,32.748,38.832c16.668-1.494,40.068-4.789,31.125,14.266
		c-2.586,1.964-15.979,2.193-17.693,2.183c-1.709-0.008,21.771,34.62,21.771,34.62s32.105-5.964,35.265,3.54
		c3.16,9.5-4.131,11.882-13.185,13.045c-9.06,1.167-6.209,1.182-6.209,1.182l35.953,48.381c0,0,72.436-1.318,86.37,5.887
		c13.932,7.201,19.552,22.63-8.996,28.749c-28.552,6.116-79.58,3.846-79.58,3.846l-35.939,48.593c0,0,27.127-0.741,23.357,10.358
		c-3.766,11.1-37.104,6.073-37.104,6.073l-22.147,32.683c0,0,25.936-0.129,19.604,12.938c-3.733,7.665-19.963,3.298-37.087,6.058
		c-7.172,7.658-22.749,37.788-29.449,39.037c-6.699,1.258-26.946,0.863-26.946,0.863s52.579-103.623,58.772-125.628
		c6.189-22.003-0.964-34.778-46.097-37.78c-45.133-3.003-61.677-2.522-61.677-2.522l-37.615,47.981l-25.402,4.713l16.856-58.647
		L3.746,174.771z"/>
</g>
<g id="change1">
	<path fill="#0A4F50" d="M0.289,184.03l16.708-5.79L0,115.119l28.385,7.087c0,0,32.263,53.685,38.71,53.284
		c6.448-0.394,85.394-1.347,85.394-1.347s27.072-1.606,13.92-40.886C153.256,93.979,114.362,9.935,114.362,9.935
		s18.261-2.177,26.227,1.287c7.966,3.464,28.088,34.124,32.747,38.832c16.666-1.495,40.068-4.789,31.124,14.263
		c-2.584,1.964-15.98,2.196-17.691,2.186c-1.711-0.008,21.771,34.617,21.771,34.617s32.105-5.962,35.265,3.54
		c3.16,9.502-4.131,11.882-13.188,13.048c-9.058,1.167-6.206,1.18-6.206,1.18l35.95,48.384c0,0,72.438-1.32,86.372,5.887
		c13.934,7.201,19.552,22.631-8.995,28.747c-28.552,6.117-79.58,3.846-79.58,3.846l-35.939,48.593c0,0,27.124-0.739,23.357,10.358
		c-3.767,11.102-37.105,6.074-37.105,6.074l-22.146,32.685c0,0,25.936-0.13,19.605,12.936c-3.734,7.666-19.963,3.298-37.089,6.059
		c-7.17,7.656-22.747,37.789-29.447,39.037c-6.701,1.255-26.946,0.863-26.946,0.863s52.579-103.625,58.772-125.628
		c6.189-22.005-0.965-34.78-46.098-37.782c-45.132-3.001-61.675-2.52-61.675-2.52L25.83,244.406l-25.403,4.712l16.857-58.647
		L0.289,184.03z"/>
</g>
</svg>
